  0
SECTION
  2
HEADER
  9
$ACADVER
  1
AC1009
  9
$EXTMIN
 10
0.0
 20
0.0
 30
0.0
  9
$EXTMAX
 10
1000.0
 20
1000.0
 30
0.0
  9
$FILLMODE
 70
 0
  9
$SPLFRAME
 70
 1
  0
ENDSEC
  0
SECTION
  2
TABLES
  0
TABLE
  2
LAYER
 70
1
  0
LAYER
  2
0
 70
     0
 62
     7
  6
CONTINUOUS
  0
ENDTAB
  0
ENDSEC
  0
SECTION
  2
ENTITIES
  0
LINE
  8
0
 62
     0
 10
0.0950846
 20
133.608
 30
0.0
 11
438.245
 21
133.608
 31
0.0
  0
LINE
  8
0
 62
     0
 10
438.245
 20
133.608
 30
0.0
 11
438.245
 21
0.257693
 31
0.0
  0
LINE
  8
0
 62
     0
 10
438.245
 20
0.257693
 30
0.0
 11
0.0950846
 21
0.257693
 31
0.0
  0
LINE
  8
0
 62
     0
 10
0.0950846
 20
0.257693
 30
0.0
 11
0.0950846
 21
133.608
 31
0.0
  0
LINE
  8
0
 62
     0
 10
393.859
 20
5.91178
 30
0.0
 11
396.522
 21
5.91178
 31
0.0
  0
LINE
  8
0
 62
     0
 10
396.522
 20
5.91178
 30
0.0
 11
396.522
 21
0.7028
 31
0.0
  0
LINE
  8
0
 62
     0
 10
396.522
 20
0.7028
 30
0.0
 11
393.859
 21
0.7028
 31
0.0
  0
LINE
  8
0
 62
     0
 10
393.859
 20
0.7028
 30
0.0
 11
393.859
 21
5.91178
 31
0.0
  0
LINE
  8
0
 62
     0
 10
365.665
 20
5.91178
 30
0.0
 11
368.332
 21
5.91178
 31
0.0
  0
LINE
  8
0
 62
     0
 10
368.332
 20
5.91178
 30
0.0
 11
368.332
 21
0.7028
 31
0.0
  0
LINE
  8
0
 62
     0
 10
368.332
 20
0.7028
 30
0.0
 11
365.665
 21
0.7028
 31
0.0
  0
LINE
  8
0
 62
     0
 10
365.665
 20
0.7028
 30
0.0
 11
365.665
 21
5.91178
 31
0.0
  0
LINE
  8
0
 62
     0
 10
186.935
 20
5.91178
 30
0.0
 11
189.601
 21
5.91178
 31
0.0
  0
LINE
  8
0
 62
     0
 10
189.601
 20
5.91178
 30
0.0
 11
189.601
 21
0.7028
 31
0.0
  0
LINE
  8
0
 62
     0
 10
189.601
 20
0.7028
 30
0.0
 11
186.935
 21
0.7028
 31
0.0
  0
LINE
  8
0
 62
     0
 10
186.935
 20
0.7028
 30
0.0
 11
186.935
 21
5.91178
 31
0.0
  0
LINE
  8
0
 62
     0
 10
96.3359
 20
5.91178
 30
0.0
 11
99.0025
 21
5.91178
 31
0.0
  0
LINE
  8
0
 62
     0
 10
99.0025
 20
5.91178
 30
0.0
 11
99.0025
 21
0.7028
 31
0.0
  0
LINE
  8
0
 62
     0
 10
99.0025
 20
0.7028
 30
0.0
 11
96.3359
 21
0.7028
 31
0.0
  0
LINE
  8
0
 62
     0
 10
96.3359
 20
0.7028
 30
0.0
 11
96.3359
 21
5.91178
 31
0.0
  0
LINE
  8
0
 62
     0
 10
401.87
 20
16.1837
 30
0.0
 11
417.47
 21
16.1837
 31
0.0
  0
LINE
  8
0
 62
     0
 10
417.47
 20
16.1837
 30
0.0
 11
417.47
 21
3.38308
 31
0.0
  0
LINE
  8
0
 62
     0
 10
417.47
 20
3.38308
 30
0.0
 11
401.87
 21
3.38308
 31
0.0
  0
LINE
  8
0
 62
     0
 10
401.87
 20
3.38308
 30
0.0
 11
401.87
 21
16.1837
 31
0.0
  0
LINE
  8
0
 62
     0
 10
373.295
 20
16.1837
 30
0.0
 11
388.895
 21
16.1837
 31
0.0
  0
LINE
  8
0
 62
     0
 10
388.895
 20
16.1837
 30
0.0
 11
388.895
 21
3.38308
 31
0.0
  0
LINE
  8
0
 62
     0
 10
388.895
 20
3.38308
 30
0.0
 11
373.295
 21
3.38308
 31
0.0
  0
LINE
  8
0
 62
     0
 10
373.295
 20
3.38308
 30
0.0
 11
373.295
 21
16.1837
 31
0.0
  0
LINE
  8
0
 62
     0
 10
335.194
 20
16.1837
 30
0.0
 11
350.795
 21
16.1837
 31
0.0
  0
LINE
  8
0
 62
     0
 10
350.795
 20
16.1837
 30
0.0
 11
350.795
 21
3.38308
 31
0.0
  0
LINE
  8
0
 62
     0
 10
350.795
 20
3.38308
 30
0.0
 11
335.194
 21
3.38308
 31
0.0
  0
LINE
  8
0
 62
     0
 10
335.194
 20
3.38308
 30
0.0
 11
335.194
 21
16.1837
 31
0.0
  0
LINE
  8
0
 62
     0
 10
316.144
 20
16.1837
 30
0.0
 11
331.745
 21
16.1837
 31
0.0
  0
LINE
  8
0
 62
     0
 10
331.745
 20
16.1837
 30
0.0
 11
331.745
 21
3.38308
 31
0.0
  0
LINE
  8
0
 62
     0
 10
331.745
 20
3.38308
 30
0.0
 11
316.144
 21
3.38308
 31
0.0
  0
LINE
  8
0
 62
     0
 10
316.144
 20
3.38308
 30
0.0
 11
316.144
 21
16.1837
 31
0.0
  0
LINE
  8
0
 62
     0
 10
297.094
 20
16.1837
 30
0.0
 11
312.693
 21
16.1837
 31
0.0
  0
LINE
  8
0
 62
     0
 10
312.693
 20
16.1837
 30
0.0
 11
312.693
 21
3.38308
 31
0.0
  0
LINE
  8
0
 62
     0
 10
312.693
 20
3.38308
 30
0.0
 11
297.094
 21
3.38308
 31
0.0
  0
LINE
  8
0
 62
     0
 10
297.094
 20
3.38308
 30
0.0
 11
297.094
 21
16.1837
 31
0.0
  0
LINE
  8
0
 62
     0
 10
263.756
 20
16.1837
 30
0.0
 11
279.356
 21
16.1837
 31
0.0
  0
LINE
  8
0
 62
     0
 10
279.356
 20
16.1837
 30
0.0
 11
279.356
 21
3.38308
 31
0.0
  0
LINE
  8
0
 62
     0
 10
279.356
 20
3.38308
 30
0.0
 11
263.756
 21
3.38308
 31
0.0
  0
LINE
  8
0
 62
     0
 10
263.756
 20
3.38308
 30
0.0
 11
263.756
 21
16.1837
 31
0.0
  0
LINE
  8
0
 62
     0
 10
237.563
 20
16.1837
 30
0.0
 11
253.162
 21
16.1837
 31
0.0
  0
LINE
  8
0
 62
     0
 10
253.162
 20
16.1837
 30
0.0
 11
253.162
 21
3.38308
 31
0.0
  0
LINE
  8
0
 62
     0
 10
253.162
 20
3.38308
 30
0.0
 11
237.563
 21
3.38308
 31
0.0
  0
LINE
  8
0
 62
     0
 10
237.563
 20
3.38308
 30
0.0
 11
237.563
 21
16.1837
 31
0.0
  0
LINE
  8
0
 62
     0
 10
211.369
 20
16.1837
 30
0.0
 11
226.97
 21
16.1837
 31
0.0
  0
LINE
  8
0
 62
     0
 10
226.97
 20
16.1837
 30
0.0
 11
226.97
 21
3.38308
 31
0.0
  0
LINE
  8
0
 62
     0
 10
226.97
 20
3.38308
 30
0.0
 11
211.369
 21
3.38308
 31
0.0
  0
LINE
  8
0
 62
     0
 10
211.369
 20
3.38308
 30
0.0
 11
211.369
 21
16.1837
 31
0.0
  0
LINE
  8
0
 62
     0
 10
135.169
 20
16.1837
 30
0.0
 11
150.77
 21
16.1837
 31
0.0
  0
LINE
  8
0
 62
     0
 10
150.77
 20
16.1837
 30
0.0
 11
150.77
 21
3.38308
 31
0.0
  0
LINE
  8
0
 62
     0
 10
150.77
 20
3.38308
 30
0.0
 11
135.169
 21
3.38308
 31
0.0
  0
LINE
  8
0
 62
     0
 10
135.169
 20
3.38308
 30
0.0
 11
135.169
 21
16.1837
 31
0.0
  0
LINE
  8
0
 62
     0
 10
58.9689
 20
16.1837
 30
0.0
 11
74.5698
 21
16.1837
 31
0.0
  0
LINE
  8
0
 62
     0
 10
74.5698
 20
16.1837
 30
0.0
 11
74.5698
 21
3.38308
 31
0.0
  0
LINE
  8
0
 62
     0
 10
74.5698
 20
3.38308
 30
0.0
 11
58.9689
 21
3.38308
 31
0.0
  0
LINE
  8
0
 62
     0
 10
58.9689
 20
3.38308
 30
0.0
 11
58.9689
 21
16.1837
 31
0.0
  0
LINE
  8
0
 62
     0
 10
32.7753
 20
16.1837
 30
0.0
 11
48.3761
 21
16.1837
 31
0.0
  0
LINE
  8
0
 62
     0
 10
48.3761
 20
16.1837
 30
0.0
 11
48.3761
 21
3.38308
 31
0.0
  0
LINE
  8
0
 62
     0
 10
48.3761
 20
3.38308
 30
0.0
 11
32.7753
 21
3.38308
 31
0.0
  0
LINE
  8
0
 62
     0
 10
32.7753
 20
3.38308
 30
0.0
 11
32.7753
 21
16.1837
 31
0.0
  0
LINE
  8
0
 62
     0
 10
6.58153
 20
16.1837
 30
0.0
 11
22.1809
 21
16.1837
 31
0.0
  0
LINE
  8
0
 62
     0
 10
22.1809
 20
16.1837
 30
0.0
 11
22.1809
 21
3.38308
 31
0.0
  0
LINE
  8
0
 62
     0
 10
22.1809
 20
3.38308
 30
0.0
 11
6.58153
 21
3.38308
 31
0.0
  0
LINE
  8
0
 62
     0
 10
6.58153
 20
3.38308
 30
0.0
 11
6.58153
 21
16.1837
 31
0.0
  0
LINE
  8
0
 62
     0
 10
419.64
 20
6.54569
 30
0.0
 11
424.847
 21
6.54569
 31
0.0
  0
LINE
  8
0
 62
     0
 10
424.847
 20
6.54569
 30
0.0
 11
424.847
 21
3.88056
 31
0.0
  0
LINE
  8
0
 62
     0
 10
424.847
 20
3.88056
 30
0.0
 11
419.64
 21
3.88056
 31
0.0
  0
LINE
  8
0
 62
     0
 10
419.64
 20
3.88056
 30
0.0
 11
419.64
 21
6.54569
 31
0.0
  0
LINE
  8
0
 62
     0
 10
422.321
 20
27.1088
 30
0.0
 11
435.12
 21
27.1088
 31
0.0
  0
LINE
  8
0
 62
     0
 10
435.12
 20
27.1088
 30
0.0
 11
435.12
 21
11.508
 31
0.0
  0
LINE
  8
0
 62
     0
 10
435.12
 20
11.508
 30
0.0
 11
422.321
 21
11.508
 31
0.0
  0
LINE
  8
0
 62
     0
 10
422.321
 20
11.508
 30
0.0
 11
422.321
 21
27.1088
 31
0.0
  0
LINE
  8
0
 62
     0
 10
272.413
 20
24.9604
 30
0.0
 11
275.08
 21
24.9604
 31
0.0
  0
LINE
  8
0
 62
     0
 10
275.08
 20
24.9604
 30
0.0
 11
275.08
 21
19.7542
 31
0.0
  0
LINE
  8
0
 62
     0
 10
275.08
 20
19.7542
 30
0.0
 11
272.413
 21
19.7542
 31
0.0
  0
LINE
  8
0
 62
     0
 10
272.413
 20
19.7542
 30
0.0
 11
272.413
 21
24.9604
 31
0.0
  0
LINE
  8
0
 62
     0
 10
244.221
 20
24.9604
 30
0.0
 11
246.888
 21
24.9604
 31
0.0
  0
LINE
  8
0
 62
     0
 10
246.888
 20
24.9604
 30
0.0
 11
246.888
 21
19.7542
 31
0.0
  0
LINE
  8
0
 62
     0
 10
246.888
 20
19.7542
 30
0.0
 11
244.221
 21
19.7542
 31
0.0
  0
LINE
  8
0
 62
     0
 10
244.221
 20
19.7542
 30
0.0
 11
244.221
 21
24.9604
 31
0.0
  0
LINE
  8
0
 62
     0
 10
34.2883
 20
24.9604
 30
0.0
 11
36.9549
 21
24.9604
 31
0.0
  0
LINE
  8
0
 62
     0
 10
36.9549
 20
24.9604
 30
0.0
 11
36.9549
 21
19.7542
 31
0.0
  0
LINE
  8
0
 62
     0
 10
36.9549
 20
19.7542
 30
0.0
 11
34.2883
 21
19.7542
 31
0.0
  0
LINE
  8
0
 62
     0
 10
34.2883
 20
19.7542
 30
0.0
 11
34.2883
 21
24.9604
 31
0.0
  0
LINE
  8
0
 62
     0
 10
6.09646
 20
24.9604
 30
0.0
 11
8.76293
 21
24.9604
 31
0.0
  0
LINE
  8
0
 62
     0
 10
8.76293
 20
24.9604
 30
0.0
 11
8.76293
 21
19.7542
 31
0.0
  0
LINE
  8
0
 62
     0
 10
8.76293
 20
19.7542
 30
0.0
 11
6.09646
 21
19.7542
 31
0.0
  0
LINE
  8
0
 62
     0
 10
6.09646
 20
19.7542
 30
0.0
 11
6.09646
 21
24.9604
 31
0.0
  0
LINE
  8
0
 62
     0
 10
401.87
 20
35.2337
 30
0.0
 11
417.47
 21
35.2337
 31
0.0
  0
LINE
  8
0
 62
     0
 10
417.47
 20
35.2337
 30
0.0
 11
417.47
 21
22.4331
 31
0.0
  0
LINE
  8
0
 62
     0
 10
417.47
 20
22.4331
 30
0.0
 11
401.87
 21
22.4331
 31
0.0
  0
LINE
  8
0
 62
     0
 10
401.87
 20
22.4331
 30
0.0
 11
401.87
 21
35.2337
 31
0.0
  0
LINE
  8
0
 62
     0
 10
382.82
 20
35.2337
 30
0.0
 11
398.42
 21
35.2337
 31
0.0
  0
LINE
  8
0
 62
     0
 10
398.42
 20
35.2337
 30
0.0
 11
398.42
 21
22.4331
 31
0.0
  0
LINE
  8
0
 62
     0
 10
398.42
 20
22.4331
 30
0.0
 11
382.82
 21
22.4331
 31
0.0
  0
LINE
  8
0
 62
     0
 10
382.82
 20
22.4331
 30
0.0
 11
382.82
 21
35.2337
 31
0.0
  0
LINE
  8
0
 62
     0
 10
363.77
 20
35.2337
 30
0.0
 11
379.37
 21
35.2337
 31
0.0
  0
LINE
  8
0
 62
     0
 10
379.37
 20
35.2337
 30
0.0
 11
379.37
 21
22.4331
 31
0.0
  0
LINE
  8
0
 62
     0
 10
379.37
 20
22.4331
 30
0.0
 11
363.77
 21
22.4331
 31
0.0
  0
LINE
  8
0
 62
     0
 10
363.77
 20
22.4331
 30
0.0
 11
363.77
 21
35.2337
 31
0.0
  0
LINE
  8
0
 62
     0
 10
316.144
 20
35.2337
 30
0.0
 11
331.745
 21
35.2337
 31
0.0
  0
LINE
  8
0
 62
     0
 10
331.745
 20
35.2337
 30
0.0
 11
331.745
 21
22.4331
 31
0.0
  0
LINE
  8
0
 62
     0
 10
331.745
 20
22.4331
 30
0.0
 11
316.144
 21
22.4331
 31
0.0
  0
LINE
  8
0
 62
     0
 10
316.144
 20
22.4331
 30
0.0
 11
316.144
 21
35.2337
 31
0.0
  0
LINE
  8
0
 62
     0
 10
251.849
 20
35.2337
 30
0.0
 11
267.451
 21
35.2337
 31
0.0
  0
LINE
  8
0
 62
     0
 10
267.451
 20
35.2337
 30
0.0
 11
267.451
 21
22.4331
 31
0.0
  0
LINE
  8
0
 62
     0
 10
267.451
 20
22.4331
 30
0.0
 11
251.849
 21
22.4331
 31
0.0
  0
LINE
  8
0
 62
     0
 10
251.849
 20
22.4331
 30
0.0
 11
251.849
 21
35.2337
 31
0.0
  0
LINE
  8
0
 62
     0
 10
216.131
 20
35.2337
 30
0.0
 11
231.731
 21
35.2337
 31
0.0
  0
LINE
  8
0
 62
     0
 10
231.731
 20
35.2337
 30
0.0
 11
231.731
 21
22.4331
 31
0.0
  0
LINE
  8
0
 62
     0
 10
231.731
 20
22.4331
 30
0.0
 11
216.131
 21
22.4331
 31
0.0
  0
LINE
  8
0
 62
     0
 10
216.131
 20
22.4331
 30
0.0
 11
216.131
 21
35.2337
 31
0.0
  0
LINE
  8
0
 62
     0
 10
197.081
 20
35.2337
 30
0.0
 11
212.681
 21
35.2337
 31
0.0
  0
LINE
  8
0
 62
     0
 10
212.681
 20
35.2337
 30
0.0
 11
212.681
 21
22.4331
 31
0.0
  0
LINE
  8
0
 62
     0
 10
212.681
 20
22.4331
 30
0.0
 11
197.081
 21
22.4331
 31
0.0
  0
LINE
  8
0
 62
     0
 10
197.081
 20
22.4331
 30
0.0
 11
197.081
 21
35.2337
 31
0.0
  0
LINE
  8
0
 62
     0
 10
178.031
 20
35.2337
 30
0.0
 11
193.631
 21
35.2337
 31
0.0
  0
LINE
  8
0
 62
     0
 10
193.631
 20
35.2337
 30
0.0
 11
193.631
 21
22.4331
 31
0.0
  0
LINE
  8
0
 62
     0
 10
193.631
 20
22.4331
 30
0.0
 11
178.031
 21
22.4331
 31
0.0
  0
LINE
  8
0
 62
     0
 10
178.031
 20
22.4331
 30
0.0
 11
178.031
 21
35.2337
 31
0.0
  0
LINE
  8
0
 62
     0
 10
158.981
 20
35.2337
 30
0.0
 11
174.581
 21
35.2337
 31
0.0
  0
LINE
  8
0
 62
     0
 10
174.581
 20
35.2337
 30
0.0
 11
174.581
 21
22.4331
 31
0.0
  0
LINE
  8
0
 62
     0
 10
174.581
 20
22.4331
 30
0.0
 11
158.981
 21
22.4331
 31
0.0
  0
LINE
  8
0
 62
     0
 10
158.981
 20
22.4331
 30
0.0
 11
158.981
 21
35.2337
 31
0.0
  0
LINE
  8
0
 62
     0
 10
139.931
 20
35.2337
 30
0.0
 11
155.531
 21
35.2337
 31
0.0
  0
LINE
  8
0
 62
     0
 10
155.531
 20
35.2337
 30
0.0
 11
155.531
 21
22.4331
 31
0.0
  0
LINE
  8
0
 62
     0
 10
155.531
 20
22.4331
 30
0.0
 11
139.931
 21
22.4331
 31
0.0
  0
LINE
  8
0
 62
     0
 10
139.931
 20
22.4331
 30
0.0
 11
139.931
 21
35.2337
 31
0.0
  0
LINE
  8
0
 62
     0
 10
120.881
 20
35.2337
 30
0.0
 11
136.481
 21
35.2337
 31
0.0
  0
LINE
  8
0
 62
     0
 10
136.481
 20
35.2337
 30
0.0
 11
136.481
 21
22.4331
 31
0.0
  0
LINE
  8
0
 62
     0
 10
136.481
 20
22.4331
 30
0.0
 11
120.881
 21
22.4331
 31
0.0
  0
LINE
  8
0
 62
     0
 10
120.881
 20
22.4331
 30
0.0
 11
120.881
 21
35.2337
 31
0.0
  0
LINE
  8
0
 62
     0
 10
101.831
 20
35.2337
 30
0.0
 11
117.431
 21
35.2337
 31
0.0
  0
LINE
  8
0
 62
     0
 10
117.431
 20
35.2337
 30
0.0
 11
117.431
 21
22.4331
 31
0.0
  0
LINE
  8
0
 62
     0
 10
117.431
 20
22.4331
 30
0.0
 11
101.831
 21
22.4331
 31
0.0
  0
LINE
  8
0
 62
     0
 10
101.831
 20
22.4331
 30
0.0
 11
101.831
 21
35.2337
 31
0.0
  0
LINE
  8
0
 62
     0
 10
82.7814
 20
35.2337
 30
0.0
 11
98.3809
 21
35.2337
 31
0.0
  0
LINE
  8
0
 62
     0
 10
98.3809
 20
35.2337
 30
0.0
 11
98.3809
 21
22.4331
 31
0.0
  0
LINE
  8
0
 62
     0
 10
98.3809
 20
22.4331
 30
0.0
 11
82.7814
 21
22.4331
 31
0.0
  0
LINE
  8
0
 62
     0
 10
82.7814
 20
22.4331
 30
0.0
 11
82.7814
 21
35.2337
 31
0.0
  0
LINE
  8
0
 62
     0
 10
63.7314
 20
35.2337
 30
0.0
 11
79.3309
 21
35.2337
 31
0.0
  0
LINE
  8
0
 62
     0
 10
79.3309
 20
35.2337
 30
0.0
 11
79.3309
 21
22.4331
 31
0.0
  0
LINE
  8
0
 62
     0
 10
79.3309
 20
22.4331
 30
0.0
 11
63.7314
 21
22.4331
 31
0.0
  0
LINE
  8
0
 62
     0
 10
63.7314
 20
22.4331
 30
0.0
 11
63.7314
 21
35.2337
 31
0.0
  0
LINE
  8
0
 62
     0
 10
44.6814
 20
35.2337
 30
0.0
 11
60.2809
 21
35.2337
 31
0.0
  0
LINE
  8
0
 62
     0
 10
60.2809
 20
35.2337
 30
0.0
 11
60.2809
 21
22.4331
 31
0.0
  0
LINE
  8
0
 62
     0
 10
60.2809
 20
22.4331
 30
0.0
 11
44.6814
 21
22.4331
 31
0.0
  0
LINE
  8
0
 62
     0
 10
44.6814
 20
22.4331
 30
0.0
 11
44.6814
 21
35.2337
 31
0.0
  0
LINE
  8
0
 62
     0
 10
13.7253
 20
35.2337
 30
0.0
 11
29.326
 21
35.2337
 31
0.0
  0
LINE
  8
0
 62
     0
 10
29.326
 20
35.2337
 30
0.0
 11
29.326
 21
22.4331
 31
0.0
  0
LINE
  8
0
 62
     0
 10
29.326
 20
22.4331
 30
0.0
 11
13.7253
 21
22.4331
 31
0.0
  0
LINE
  8
0
 62
     0
 10
13.7253
 20
22.4331
 30
0.0
 11
13.7253
 21
35.2337
 31
0.0
  0
LINE
  8
0
 62
     0
 10
419.64
 20
34.7376
 30
0.0
 11
424.847
 21
34.7376
 31
0.0
  0
LINE
  8
0
 62
     0
 10
424.847
 20
34.7376
 30
0.0
 11
424.847
 21
32.0725
 31
0.0
  0
LINE
  8
0
 62
     0
 10
424.847
 20
32.0725
 30
0.0
 11
419.64
 21
32.0725
 31
0.0
  0
LINE
  8
0
 62
     0
 10
419.64
 20
32.0725
 30
0.0
 11
419.64
 21
34.7376
 31
0.0
  0
LINE
  8
0
 62
     0
 10
277.176
 20
44.0104
 30
0.0
 11
279.841
 21
44.0104
 31
0.0
  0
LINE
  8
0
 62
     0
 10
279.841
 20
44.0104
 30
0.0
 11
279.841
 21
38.8041
 31
0.0
  0
LINE
  8
0
 62
     0
 10
279.841
 20
38.8041
 30
0.0
 11
277.176
 21
38.8041
 31
0.0
  0
LINE
  8
0
 62
     0
 10
277.176
 20
38.8041
 30
0.0
 11
277.176
 21
44.0104
 31
0.0
  0
LINE
  8
0
 62
     0
 10
248.984
 20
44.0104
 30
0.0
 11
251.649
 21
44.0104
 31
0.0
  0
LINE
  8
0
 62
     0
 10
251.649
 20
44.0104
 30
0.0
 11
251.649
 21
38.8041
 31
0.0
  0
LINE
  8
0
 62
     0
 10
251.649
 20
38.8041
 30
0.0
 11
248.984
 21
38.8041
 31
0.0
  0
LINE
  8
0
 62
     0
 10
248.984
 20
38.8041
 30
0.0
 11
248.984
 21
44.0104
 31
0.0
  0
LINE
  8
0
 62
     0
 10
27.3678
 20
44.0104
 30
0.0
 11
30.033
 21
44.0104
 31
0.0
  0
LINE
  8
0
 62
     0
 10
30.033
 20
44.0104
 30
0.0
 11
30.033
 21
38.8041
 31
0.0
  0
LINE
  8
0
 62
     0
 10
30.033
 20
38.8041
 30
0.0
 11
27.3678
 21
38.8041
 31
0.0
  0
LINE
  8
0
 62
     0
 10
27.3678
 20
38.8041
 30
0.0
 11
27.3678
 21
44.0104
 31
0.0
  0
LINE
  8
0
 62
     0
 10
3.49195
 20
44.0104
 30
0.0
 11
6.15707
 21
44.0104
 31
0.0
  0
LINE
  8
0
 62
     0
 10
6.15707
 20
44.0104
 30
0.0
 11
6.15707
 21
38.8041
 31
0.0
  0
LINE
  8
0
 62
     0
 10
6.15707
 20
38.8041
 30
0.0
 11
3.49195
 21
38.8041
 31
0.0
  0
LINE
  8
0
 62
     0
 10
3.49195
 20
38.8041
 30
0.0
 11
3.49195
 21
44.0104
 31
0.0
  0
LINE
  8
0
 62
     0
 10
420.92
 20
54.2837
 30
0.0
 11
436.52
 21
54.2837
 31
0.0
  0
LINE
  8
0
 62
     0
 10
436.52
 20
54.2837
 30
0.0
 11
436.52
 21
41.4831
 31
0.0
  0
LINE
  8
0
 62
     0
 10
436.52
 20
41.4831
 30
0.0
 11
420.92
 21
41.4831
 31
0.0
  0
LINE
  8
0
 62
     0
 10
420.92
 20
41.4831
 30
0.0
 11
420.92
 21
54.2837
 31
0.0
  0
LINE
  8
0
 62
     0
 10
401.87
 20
54.2837
 30
0.0
 11
417.47
 21
54.2837
 31
0.0
  0
LINE
  8
0
 62
     0
 10
417.47
 20
54.2837
 30
0.0
 11
417.47
 21
41.4831
 31
0.0
  0
LINE
  8
0
 62
     0
 10
417.47
 20
41.4831
 30
0.0
 11
401.87
 21
41.4831
 31
0.0
  0
LINE
  8
0
 62
     0
 10
401.87
 20
41.4831
 30
0.0
 11
401.87
 21
54.2837
 31
0.0
  0
LINE
  8
0
 62
     0
 10
382.82
 20
54.2837
 30
0.0
 11
398.42
 21
54.2837
 31
0.0
  0
LINE
  8
0
 62
     0
 10
398.42
 20
54.2837
 30
0.0
 11
398.42
 21
41.4831
 31
0.0
  0
LINE
  8
0
 62
     0
 10
398.42
 20
41.4831
 30
0.0
 11
382.82
 21
41.4831
 31
0.0
  0
LINE
  8
0
 62
     0
 10
382.82
 20
41.4831
 30
0.0
 11
382.82
 21
54.2837
 31
0.0
  0
LINE
  8
0
 62
     0
 10
363.77
 20
54.2837
 30
0.0
 11
379.37
 21
54.2837
 31
0.0
  0
LINE
  8
0
 62
     0
 10
379.37
 20
54.2837
 30
0.0
 11
379.37
 21
41.4831
 31
0.0
  0
LINE
  8
0
 62
     0
 10
379.37
 20
41.4831
 30
0.0
 11
363.77
 21
41.4831
 31
0.0
  0
LINE
  8
0
 62
     0
 10
363.77
 20
41.4831
 30
0.0
 11
363.77
 21
54.2837
 31
0.0
  0
LINE
  8
0
 62
     0
 10
256.611
 20
54.2837
 30
0.0
 11
272.212
 21
54.2837
 31
0.0
  0
LINE
  8
0
 62
     0
 10
272.212
 20
54.2837
 30
0.0
 11
272.212
 21
41.4831
 31
0.0
  0
LINE
  8
0
 62
     0
 10
272.212
 20
41.4831
 30
0.0
 11
256.611
 21
41.4831
 31
0.0
  0
LINE
  8
0
 62
     0
 10
256.611
 20
41.4831
 30
0.0
 11
256.611
 21
54.2837
 31
0.0
  0
LINE
  8
0
 62
     0
 10
225.656
 20
54.2837
 30
0.0
 11
241.256
 21
54.2837
 31
0.0
  0
LINE
  8
0
 62
     0
 10
241.256
 20
54.2837
 30
0.0
 11
241.256
 21
41.4831
 31
0.0
  0
LINE
  8
0
 62
     0
 10
241.256
 20
41.4831
 30
0.0
 11
225.656
 21
41.4831
 31
0.0
  0
LINE
  8
0
 62
     0
 10
225.656
 20
41.4831
 30
0.0
 11
225.656
 21
54.2837
 31
0.0
  0
LINE
  8
0
 62
     0
 10
206.606
 20
54.2837
 30
0.0
 11
222.206
 21
54.2837
 31
0.0
  0
LINE
  8
0
 62
     0
 10
222.206
 20
54.2837
 30
0.0
 11
222.206
 21
41.4831
 31
0.0
  0
LINE
  8
0
 62
     0
 10
222.206
 20
41.4831
 30
0.0
 11
206.606
 21
41.4831
 31
0.0
  0
LINE
  8
0
 62
     0
 10
206.606
 20
41.4831
 30
0.0
 11
206.606
 21
54.2837
 31
0.0
  0
LINE
  8
0
 62
     0
 10
187.556
 20
54.2837
 30
0.0
 11
203.156
 21
54.2837
 31
0.0
  0
LINE
  8
0
 62
     0
 10
203.156
 20
54.2837
 30
0.0
 11
203.156
 21
41.4831
 31
0.0
  0
LINE
  8
0
 62
     0
 10
203.156
 20
41.4831
 30
0.0
 11
187.556
 21
41.4831
 31
0.0
  0
LINE
  8
0
 62
     0
 10
187.556
 20
41.4831
 30
0.0
 11
187.556
 21
54.2837
 31
0.0
  0
LINE
  8
0
 62
     0
 10
168.506
 20
54.2837
 30
0.0
 11
184.106
 21
54.2837
 31
0.0
  0
LINE
  8
0
 62
     0
 10
184.106
 20
54.2837
 30
0.0
 11
184.106
 21
41.4831
 31
0.0
  0
LINE
  8
0
 62
     0
 10
184.106
 20
41.4831
 30
0.0
 11
168.506
 21
41.4831
 31
0.0
  0
LINE
  8
0
 62
     0
 10
168.506
 20
41.4831
 30
0.0
 11
168.506
 21
54.2837
 31
0.0
  0
LINE
  8
0
 62
     0
 10
149.456
 20
54.2837
 30
0.0
 11
165.056
 21
54.2837
 31
0.0
  0
LINE
  8
0
 62
     0
 10
165.056
 20
54.2837
 30
0.0
 11
165.056
 21
41.4831
 31
0.0
  0
LINE
  8
0
 62
     0
 10
165.056
 20
41.4831
 30
0.0
 11
149.456
 21
41.4831
 31
0.0
  0
LINE
  8
0
 62
     0
 10
149.456
 20
41.4831
 30
0.0
 11
149.456
 21
54.2837
 31
0.0
  0
LINE
  8
0
 62
     0
 10
130.406
 20
54.2837
 30
0.0
 11
146.006
 21
54.2837
 31
0.0
  0
LINE
  8
0
 62
     0
 10
146.006
 20
54.2837
 30
0.0
 11
146.006
 21
41.4831
 31
0.0
  0
LINE
  8
0
 62
     0
 10
146.006
 20
41.4831
 30
0.0
 11
130.406
 21
41.4831
 31
0.0
  0
LINE
  8
0
 62
     0
 10
130.406
 20
41.4831
 30
0.0
 11
130.406
 21
54.2837
 31
0.0
  0
LINE
  8
0
 62
     0
 10
111.356
 20
54.2837
 30
0.0
 11
126.956
 21
54.2837
 31
0.0
  0
LINE
  8
0
 62
     0
 10
126.956
 20
54.2837
 30
0.0
 11
126.956
 21
41.4831
 31
0.0
  0
LINE
  8
0
 62
     0
 10
126.956
 20
41.4831
 30
0.0
 11
111.356
 21
41.4831
 31
0.0
  0
LINE
  8
0
 62
     0
 10
111.356
 20
41.4831
 30
0.0
 11
111.356
 21
54.2837
 31
0.0
  0
LINE
  8
0
 62
     0
 10
92.3064
 20
54.2837
 30
0.0
 11
107.906
 21
54.2837
 31
0.0
  0
LINE
  8
0
 62
     0
 10
107.906
 20
54.2837
 30
0.0
 11
107.906
 21
41.4831
 31
0.0
  0
LINE
  8
0
 62
     0
 10
107.906
 20
41.4831
 30
0.0
 11
92.3064
 21
41.4831
 31
0.0
  0
LINE
  8
0
 62
     0
 10
92.3064
 20
41.4831
 30
0.0
 11
92.3064
 21
54.2837
 31
0.0
  0
LINE
  8
0
 62
     0
 10
73.2564
 20
54.2837
 30
0.0
 11
88.8559
 21
54.2837
 31
0.0
  0
LINE
  8
0
 62
     0
 10
88.8559
 20
54.2837
 30
0.0
 11
88.8559
 21
41.4831
 31
0.0
  0
LINE
  8
0
 62
     0
 10
88.8559
 20
41.4831
 30
0.0
 11
73.2564
 21
41.4831
 31
0.0
  0
LINE
  8
0
 62
     0
 10
73.2564
 20
41.4831
 30
0.0
 11
73.2564
 21
54.2837
 31
0.0
  0
LINE
  8
0
 62
     0
 10
54.2064
 20
54.2837
 30
0.0
 11
69.8059
 21
54.2837
 31
0.0
  0
LINE
  8
0
 62
     0
 10
69.8059
 20
54.2837
 30
0.0
 11
69.8059
 21
41.4831
 31
0.0
  0
LINE
  8
0
 62
     0
 10
69.8059
 20
41.4831
 30
0.0
 11
54.2064
 21
41.4831
 31
0.0
  0
LINE
  8
0
 62
     0
 10
54.2064
 20
41.4831
 30
0.0
 11
54.2064
 21
54.2837
 31
0.0
  0
LINE
  8
0
 62
     0
 10
35.1565
 20
54.2837
 30
0.0
 11
50.7559
 21
54.2837
 31
0.0
  0
LINE
  8
0
 62
     0
 10
50.7559
 20
54.2837
 30
0.0
 11
50.7559
 21
41.4831
 31
0.0
  0
LINE
  8
0
 62
     0
 10
50.7559
 20
41.4831
 30
0.0
 11
35.1565
 21
41.4831
 31
0.0
  0
LINE
  8
0
 62
     0
 10
35.1565
 20
41.4831
 30
0.0
 11
35.1565
 21
54.2837
 31
0.0
  0
LINE
  8
0
 62
     0
 10
8.96278
 20
54.2837
 30
0.0
 11
24.5622
 21
54.2837
 31
0.0
  0
LINE
  8
0
 62
     0
 10
24.5622
 20
54.2837
 30
0.0
 11
24.5622
 21
41.4831
 31
0.0
  0
LINE
  8
0
 62
     0
 10
24.5622
 20
41.4831
 30
0.0
 11
8.96278
 21
41.4831
 31
0.0
  0
LINE
  8
0
 62
     0
 10
8.96278
 20
41.4831
 30
0.0
 11
8.96278
 21
54.2837
 31
0.0
  0
LINE
  8
0
 62
     0
 10
420.92
 20
73.3337
 30
0.0
 11
436.52
 21
73.3337
 31
0.0
  0
LINE
  8
0
 62
     0
 10
436.52
 20
73.3337
 30
0.0
 11
436.52
 21
60.5331
 31
0.0
  0
LINE
  8
0
 62
     0
 10
436.52
 20
60.5331
 30
0.0
 11
420.92
 21
60.5331
 31
0.0
  0
LINE
  8
0
 62
     0
 10
420.92
 20
60.5331
 30
0.0
 11
420.92
 21
73.3337
 31
0.0
  0
LINE
  8
0
 62
     0
 10
401.87
 20
73.3337
 30
0.0
 11
417.47
 21
73.3337
 31
0.0
  0
LINE
  8
0
 62
     0
 10
417.47
 20
73.3337
 30
0.0
 11
417.47
 21
60.5331
 31
0.0
  0
LINE
  8
0
 62
     0
 10
417.47
 20
60.5331
 30
0.0
 11
401.87
 21
60.5331
 31
0.0
  0
LINE
  8
0
 62
     0
 10
401.87
 20
60.5331
 30
0.0
 11
401.87
 21
73.3337
 31
0.0
  0
LINE
  8
0
 62
     0
 10
382.82
 20
73.3337
 30
0.0
 11
398.42
 21
73.3337
 31
0.0
  0
LINE
  8
0
 62
     0
 10
398.42
 20
73.3337
 30
0.0
 11
398.42
 21
60.5331
 31
0.0
  0
LINE
  8
0
 62
     0
 10
398.42
 20
60.5331
 30
0.0
 11
382.82
 21
60.5331
 31
0.0
  0
LINE
  8
0
 62
     0
 10
382.82
 20
60.5331
 30
0.0
 11
382.82
 21
73.3337
 31
0.0
  0
LINE
  8
0
 62
     0
 10
363.77
 20
73.3337
 30
0.0
 11
379.37
 21
73.3337
 31
0.0
  0
LINE
  8
0
 62
     0
 10
379.37
 20
73.3337
 30
0.0
 11
379.37
 21
60.5331
 31
0.0
  0
LINE
  8
0
 62
     0
 10
379.37
 20
60.5331
 30
0.0
 11
363.77
 21
60.5331
 31
0.0
  0
LINE
  8
0
 62
     0
 10
363.77
 20
60.5331
 30
0.0
 11
363.77
 21
73.3337
 31
0.0
  0
LINE
  8
0
 62
     0
 10
335.194
 20
73.3337
 30
0.0
 11
350.795
 21
73.3337
 31
0.0
  0
LINE
  8
0
 62
     0
 10
350.795
 20
73.3337
 30
0.0
 11
350.795
 21
60.5331
 31
0.0
  0
LINE
  8
0
 62
     0
 10
350.795
 20
60.5331
 30
0.0
 11
335.194
 21
60.5331
 31
0.0
  0
LINE
  8
0
 62
     0
 10
335.194
 20
60.5331
 30
0.0
 11
335.194
 21
73.3337
 31
0.0
  0
LINE
  8
0
 62
     0
 10
316.144
 20
73.3337
 30
0.0
 11
331.745
 21
73.3337
 31
0.0
  0
LINE
  8
0
 62
     0
 10
331.745
 20
73.3337
 30
0.0
 11
331.745
 21
60.5331
 31
0.0
  0
LINE
  8
0
 62
     0
 10
331.745
 20
60.5331
 30
0.0
 11
316.144
 21
60.5331
 31
0.0
  0
LINE
  8
0
 62
     0
 10
316.144
 20
60.5331
 30
0.0
 11
316.144
 21
73.3337
 31
0.0
  0
LINE
  8
0
 62
     0
 10
297.094
 20
73.3337
 30
0.0
 11
312.695
 21
73.3337
 31
0.0
  0
LINE
  8
0
 62
     0
 10
312.695
 20
73.3337
 30
0.0
 11
312.695
 21
60.5331
 31
0.0
  0
LINE
  8
0
 62
     0
 10
312.695
 20
60.5331
 30
0.0
 11
297.094
 21
60.5331
 31
0.0
  0
LINE
  8
0
 62
     0
 10
297.094
 20
60.5331
 30
0.0
 11
297.094
 21
73.3337
 31
0.0
  0
LINE
  8
0
 62
     0
 10
263.756
 20
73.3337
 30
0.0
 11
279.356
 21
73.3337
 31
0.0
  0
LINE
  8
0
 62
     0
 10
279.356
 20
73.3337
 30
0.0
 11
279.356
 21
60.5331
 31
0.0
  0
LINE
  8
0
 62
     0
 10
279.356
 20
60.5331
 30
0.0
 11
263.756
 21
60.5331
 31
0.0
  0
LINE
  8
0
 62
     0
 10
263.756
 20
60.5331
 30
0.0
 11
263.756
 21
73.3337
 31
0.0
  0
LINE
  8
0
 62
     0
 10
239.944
 20
73.3337
 30
0.0
 11
255.545
 21
73.3337
 31
0.0
  0
LINE
  8
0
 62
     0
 10
255.545
 20
73.3337
 30
0.0
 11
255.545
 21
60.5331
 31
0.0
  0
LINE
  8
0
 62
     0
 10
255.545
 20
60.5331
 30
0.0
 11
239.944
 21
60.5331
 31
0.0
  0
LINE
  8
0
 62
     0
 10
239.944
 20
60.5331
 30
0.0
 11
239.944
 21
73.3337
 31
0.0
  0
LINE
  8
0
 62
     0
 10
220.894
 20
73.3337
 30
0.0
 11
236.495
 21
73.3337
 31
0.0
  0
LINE
  8
0
 62
     0
 10
236.495
 20
73.3337
 30
0.0
 11
236.495
 21
60.5331
 31
0.0
  0
LINE
  8
0
 62
     0
 10
236.495
 20
60.5331
 30
0.0
 11
220.894
 21
60.5331
 31
0.0
  0
LINE
  8
0
 62
     0
 10
220.894
 20
60.5331
 30
0.0
 11
220.894
 21
73.3337
 31
0.0
  0
LINE
  8
0
 62
     0
 10
201.844
 20
73.3337
 30
0.0
 11
217.445
 21
73.3337
 31
0.0
  0
LINE
  8
0
 62
     0
 10
217.445
 20
73.3337
 30
0.0
 11
217.445
 21
60.5331
 31
0.0
  0
LINE
  8
0
 62
     0
 10
217.445
 20
60.5331
 30
0.0
 11
201.844
 21
60.5331
 31
0.0
  0
LINE
  8
0
 62
     0
 10
201.844
 20
60.5331
 30
0.0
 11
201.844
 21
73.3337
 31
0.0
  0
LINE
  8
0
 62
     0
 10
182.794
 20
73.3337
 30
0.0
 11
198.395
 21
73.3337
 31
0.0
  0
LINE
  8
0
 62
     0
 10
198.395
 20
73.3337
 30
0.0
 11
198.395
 21
60.5331
 31
0.0
  0
LINE
  8
0
 62
     0
 10
198.395
 20
60.5331
 30
0.0
 11
182.794
 21
60.5331
 31
0.0
  0
LINE
  8
0
 62
     0
 10
182.794
 20
60.5331
 30
0.0
 11
182.794
 21
73.3337
 31
0.0
  0
LINE
  8
0
 62
     0
 10
163.744
 20
73.3337
 30
0.0
 11
179.345
 21
73.3337
 31
0.0
  0
LINE
  8
0
 62
     0
 10
179.345
 20
73.3337
 30
0.0
 11
179.345
 21
60.5331
 31
0.0
  0
LINE
  8
0
 62
     0
 10
179.345
 20
60.5331
 30
0.0
 11
163.744
 21
60.5331
 31
0.0
  0
LINE
  8
0
 62
     0
 10
163.744
 20
60.5331
 30
0.0
 11
163.744
 21
73.3337
 31
0.0
  0
LINE
  8
0
 62
     0
 10
144.694
 20
73.3337
 30
0.0
 11
160.295
 21
73.3337
 31
0.0
  0
LINE
  8
0
 62
     0
 10
160.295
 20
73.3337
 30
0.0
 11
160.295
 21
60.5331
 31
0.0
  0
LINE
  8
0
 62
     0
 10
160.295
 20
60.5331
 30
0.0
 11
144.694
 21
60.5331
 31
0.0
  0
LINE
  8
0
 62
     0
 10
144.694
 20
60.5331
 30
0.0
 11
144.694
 21
73.3337
 31
0.0
  0
LINE
  8
0
 62
     0
 10
125.644
 20
73.3337
 30
0.0
 11
141.245
 21
73.3337
 31
0.0
  0
LINE
  8
0
 62
     0
 10
141.245
 20
73.3337
 30
0.0
 11
141.245
 21
60.5331
 31
0.0
  0
LINE
  8
0
 62
     0
 10
141.245
 20
60.5331
 30
0.0
 11
125.644
 21
60.5331
 31
0.0
  0
LINE
  8
0
 62
     0
 10
125.644
 20
60.5331
 30
0.0
 11
125.644
 21
73.3337
 31
0.0
  0
LINE
  8
0
 62
     0
 10
106.594
 20
73.3337
 30
0.0
 11
122.195
 21
73.3337
 31
0.0
  0
LINE
  8
0
 62
     0
 10
122.195
 20
73.3337
 30
0.0
 11
122.195
 21
60.5331
 31
0.0
  0
LINE
  8
0
 62
     0
 10
122.195
 20
60.5331
 30
0.0
 11
106.594
 21
60.5331
 31
0.0
  0
LINE
  8
0
 62
     0
 10
106.594
 20
60.5331
 30
0.0
 11
106.594
 21
73.3337
 31
0.0
  0
LINE
  8
0
 62
     0
 10
87.5439
 20
73.3337
 30
0.0
 11
103.145
 21
73.3337
 31
0.0
  0
LINE
  8
0
 62
     0
 10
103.145
 20
73.3337
 30
0.0
 11
103.145
 21
60.5331
 31
0.0
  0
LINE
  8
0
 62
     0
 10
103.145
 20
60.5331
 30
0.0
 11
87.5439
 21
60.5331
 31
0.0
  0
LINE
  8
0
 62
     0
 10
87.5439
 20
60.5331
 30
0.0
 11
87.5439
 21
73.3337
 31
0.0
  0
LINE
  8
0
 62
     0
 10
68.4939
 20
73.3337
 30
0.0
 11
84.0948
 21
73.3337
 31
0.0
  0
LINE
  8
0
 62
     0
 10
84.0948
 20
73.3337
 30
0.0
 11
84.0948
 21
60.5331
 31
0.0
  0
LINE
  8
0
 62
     0
 10
84.0948
 20
60.5331
 30
0.0
 11
68.4939
 21
60.5331
 31
0.0
  0
LINE
  8
0
 62
     0
 10
68.4939
 20
60.5331
 30
0.0
 11
68.4939
 21
73.3337
 31
0.0
  0
LINE
  8
0
 62
     0
 10
49.4439
 20
73.3337
 30
0.0
 11
65.0448
 21
73.3337
 31
0.0
  0
LINE
  8
0
 62
     0
 10
65.0448
 20
73.3337
 30
0.0
 11
65.0448
 21
60.5331
 31
0.0
  0
LINE
  8
0
 62
     0
 10
65.0448
 20
60.5331
 30
0.0
 11
49.4439
 21
60.5331
 31
0.0
  0
LINE
  8
0
 62
     0
 10
49.4439
 20
60.5331
 30
0.0
 11
49.4439
 21
73.3337
 31
0.0
  0
LINE
  8
0
 62
     0
 10
30.394
 20
73.3337
 30
0.0
 11
45.9948
 21
73.3337
 31
0.0
  0
LINE
  8
0
 62
     0
 10
45.9948
 20
73.3337
 30
0.0
 11
45.9948
 21
60.5331
 31
0.0
  0
LINE
  8
0
 62
     0
 10
45.9948
 20
60.5331
 30
0.0
 11
30.394
 21
60.5331
 31
0.0
  0
LINE
  8
0
 62
     0
 10
30.394
 20
60.5331
 30
0.0
 11
30.394
 21
73.3337
 31
0.0
  0
LINE
  8
0
 62
     0
 10
6.58153
 20
73.3337
 30
0.0
 11
22.1809
 21
73.3337
 31
0.0
  0
LINE
  8
0
 62
     0
 10
22.1809
 20
73.3337
 30
0.0
 11
22.1809
 21
60.5331
 31
0.0
  0
LINE
  8
0
 62
     0
 10
22.1809
 20
60.5331
 30
0.0
 11
6.58153
 21
60.5331
 31
0.0
  0
LINE
  8
0
 62
     0
 10
6.58153
 20
60.5331
 30
0.0
 11
6.58153
 21
73.3337
 31
0.0
  0
LINE
  8
0
 62
     0
 10
420.92
 20
92.3837
 30
0.0
 11
436.52
 21
92.3837
 31
0.0
  0
LINE
  8
0
 62
     0
 10
436.52
 20
92.3837
 30
0.0
 11
436.52
 21
79.5831
 31
0.0
  0
LINE
  8
0
 62
     0
 10
436.52
 20
79.5831
 30
0.0
 11
420.92
 21
79.5831
 31
0.0
  0
LINE
  8
0
 62
     0
 10
420.92
 20
79.5831
 30
0.0
 11
420.92
 21
92.3837
 31
0.0
  0
LINE
  8
0
 62
     0
 10
401.87
 20
92.3837
 30
0.0
 11
417.47
 21
92.3837
 31
0.0
  0
LINE
  8
0
 62
     0
 10
417.47
 20
92.3837
 30
0.0
 11
417.47
 21
79.5831
 31
0.0
  0
LINE
  8
0
 62
     0
 10
417.47
 20
79.5831
 30
0.0
 11
401.87
 21
79.5831
 31
0.0
  0
LINE
  8
0
 62
     0
 10
401.87
 20
79.5831
 30
0.0
 11
401.87
 21
92.3837
 31
0.0
  0
LINE
  8
0
 62
     0
 10
382.82
 20
92.3837
 30
0.0
 11
398.42
 21
92.3837
 31
0.0
  0
LINE
  8
0
 62
     0
 10
398.42
 20
92.3837
 30
0.0
 11
398.42
 21
79.5831
 31
0.0
  0
LINE
  8
0
 62
     0
 10
398.42
 20
79.5831
 30
0.0
 11
382.82
 21
79.5831
 31
0.0
  0
LINE
  8
0
 62
     0
 10
382.82
 20
79.5831
 30
0.0
 11
382.82
 21
92.3837
 31
0.0
  0
LINE
  8
0
 62
     0
 10
363.77
 20
92.3837
 30
0.0
 11
379.37
 21
92.3837
 31
0.0
  0
LINE
  8
0
 62
     0
 10
379.37
 20
92.3837
 30
0.0
 11
379.37
 21
79.5831
 31
0.0
  0
LINE
  8
0
 62
     0
 10
379.37
 20
79.5831
 30
0.0
 11
363.77
 21
79.5831
 31
0.0
  0
LINE
  8
0
 62
     0
 10
363.77
 20
79.5831
 30
0.0
 11
363.77
 21
92.3837
 31
0.0
  0
LINE
  8
0
 62
     0
 10
335.194
 20
92.3837
 30
0.0
 11
350.795
 21
92.3837
 31
0.0
  0
LINE
  8
0
 62
     0
 10
350.795
 20
92.3837
 30
0.0
 11
350.795
 21
79.5831
 31
0.0
  0
LINE
  8
0
 62
     0
 10
350.795
 20
79.5831
 30
0.0
 11
335.194
 21
79.5831
 31
0.0
  0
LINE
  8
0
 62
     0
 10
335.194
 20
79.5831
 30
0.0
 11
335.194
 21
92.3837
 31
0.0
  0
LINE
  8
0
 62
     0
 10
316.144
 20
92.3837
 30
0.0
 11
331.745
 21
92.3837
 31
0.0
  0
LINE
  8
0
 62
     0
 10
331.745
 20
92.3837
 30
0.0
 11
331.745
 21
79.5831
 31
0.0
  0
LINE
  8
0
 62
     0
 10
331.745
 20
79.5831
 30
0.0
 11
316.144
 21
79.5831
 31
0.0
  0
LINE
  8
0
 62
     0
 10
316.144
 20
79.5831
 30
0.0
 11
316.144
 21
92.3837
 31
0.0
  0
LINE
  8
0
 62
     0
 10
297.094
 20
92.3837
 30
0.0
 11
312.695
 21
92.3837
 31
0.0
  0
LINE
  8
0
 62
     0
 10
312.695
 20
92.3837
 30
0.0
 11
312.695
 21
79.5831
 31
0.0
  0
LINE
  8
0
 62
     0
 10
312.695
 20
79.5831
 30
0.0
 11
297.094
 21
79.5831
 31
0.0
  0
LINE
  8
0
 62
     0
 10
297.094
 20
79.5831
 30
0.0
 11
297.094
 21
92.3837
 31
0.0
  0
LINE
  8
0
 62
     0
 10
258.994
 20
92.3837
 30
0.0
 11
274.595
 21
92.3837
 31
0.0
  0
LINE
  8
0
 62
     0
 10
274.595
 20
92.3837
 30
0.0
 11
274.595
 21
79.5831
 31
0.0
  0
LINE
  8
0
 62
     0
 10
274.595
 20
79.5831
 30
0.0
 11
258.994
 21
79.5831
 31
0.0
  0
LINE
  8
0
 62
     0
 10
258.994
 20
79.5831
 30
0.0
 11
258.994
 21
92.3837
 31
0.0
  0
LINE
  8
0
 62
     0
 10
230.419
 20
92.3837
 30
0.0
 11
246.02
 21
92.3837
 31
0.0
  0
LINE
  8
0
 62
     0
 10
246.02
 20
92.3837
 30
0.0
 11
246.02
 21
79.5831
 31
0.0
  0
LINE
  8
0
 62
     0
 10
246.02
 20
79.5831
 30
0.0
 11
230.419
 21
79.5831
 31
0.0
  0
LINE
  8
0
 62
     0
 10
230.419
 20
79.5831
 30
0.0
 11
230.419
 21
92.3837
 31
0.0
  0
LINE
  8
0
 62
     0
 10
211.369
 20
92.3837
 30
0.0
 11
226.97
 21
92.3837
 31
0.0
  0
LINE
  8
0
 62
     0
 10
226.97
 20
92.3837
 30
0.0
 11
226.97
 21
79.5831
 31
0.0
  0
LINE
  8
0
 62
     0
 10
226.97
 20
79.5831
 30
0.0
 11
211.369
 21
79.5831
 31
0.0
  0
LINE
  8
0
 62
     0
 10
211.369
 20
79.5831
 30
0.0
 11
211.369
 21
92.3837
 31
0.0
  0
LINE
  8
0
 62
     0
 10
192.319
 20
92.3837
 30
0.0
 11
207.92
 21
92.3837
 31
0.0
  0
LINE
  8
0
 62
     0
 10
207.92
 20
92.3837
 30
0.0
 11
207.92
 21
79.5831
 31
0.0
  0
LINE
  8
0
 62
     0
 10
207.92
 20
79.5831
 30
0.0
 11
192.319
 21
79.5831
 31
0.0
  0
LINE
  8
0
 62
     0
 10
192.319
 20
79.5831
 30
0.0
 11
192.319
 21
92.3837
 31
0.0
  0
LINE
  8
0
 62
     0
 10
173.269
 20
92.3837
 30
0.0
 11
188.87
 21
92.3837
 31
0.0
  0
LINE
  8
0
 62
     0
 10
188.87
 20
92.3837
 30
0.0
 11
188.87
 21
79.5831
 31
0.0
  0
LINE
  8
0
 62
     0
 10
188.87
 20
79.5831
 30
0.0
 11
173.269
 21
79.5831
 31
0.0
  0
LINE
  8
0
 62
     0
 10
173.269
 20
79.5831
 30
0.0
 11
173.269
 21
92.3837
 31
0.0
  0
LINE
  8
0
 62
     0
 10
154.219
 20
92.3837
 30
0.0
 11
169.82
 21
92.3837
 31
0.0
  0
LINE
  8
0
 62
     0
 10
169.82
 20
92.3837
 30
0.0
 11
169.82
 21
79.5831
 31
0.0
  0
LINE
  8
0
 62
     0
 10
169.82
 20
79.5831
 30
0.0
 11
154.219
 21
79.5831
 31
0.0
  0
LINE
  8
0
 62
     0
 10
154.219
 20
79.5831
 30
0.0
 11
154.219
 21
92.3837
 31
0.0
  0
LINE
  8
0
 62
     0
 10
135.169
 20
92.3837
 30
0.0
 11
150.77
 21
92.3837
 31
0.0
  0
LINE
  8
0
 62
     0
 10
150.77
 20
92.3837
 30
0.0
 11
150.77
 21
79.5831
 31
0.0
  0
LINE
  8
0
 62
     0
 10
150.77
 20
79.5831
 30
0.0
 11
135.169
 21
79.5831
 31
0.0
  0
LINE
  8
0
 62
     0
 10
135.169
 20
79.5831
 30
0.0
 11
135.169
 21
92.3837
 31
0.0
  0
LINE
  8
0
 62
     0
 10
116.119
 20
92.3837
 30
0.0
 11
131.72
 21
92.3837
 31
0.0
  0
LINE
  8
0
 62
     0
 10
131.72
 20
92.3837
 30
0.0
 11
131.72
 21
79.5831
 31
0.0
  0
LINE
  8
0
 62
     0
 10
131.72
 20
79.5831
 30
0.0
 11
116.119
 21
79.5831
 31
0.0
  0
LINE
  8
0
 62
     0
 10
116.119
 20
79.5831
 30
0.0
 11
116.119
 21
92.3837
 31
0.0
  0
LINE
  8
0
 62
     0
 10
97.0689
 20
92.3837
 30
0.0
 11
112.668
 21
92.3837
 31
0.0
  0
LINE
  8
0
 62
     0
 10
112.668
 20
92.3837
 30
0.0
 11
112.668
 21
79.5831
 31
0.0
  0
LINE
  8
0
 62
     0
 10
112.668
 20
79.5831
 30
0.0
 11
97.0689
 21
79.5831
 31
0.0
  0
LINE
  8
0
 62
     0
 10
97.0689
 20
79.5831
 30
0.0
 11
97.0689
 21
92.3837
 31
0.0
  0
LINE
  8
0
 62
     0
 10
78.0189
 20
92.3837
 30
0.0
 11
93.6184
 21
92.3837
 31
0.0
  0
LINE
  8
0
 62
     0
 10
93.6184
 20
92.3837
 30
0.0
 11
93.6184
 21
79.5831
 31
0.0
  0
LINE
  8
0
 62
     0
 10
93.6184
 20
79.5831
 30
0.0
 11
78.0189
 21
79.5831
 31
0.0
  0
LINE
  8
0
 62
     0
 10
78.0189
 20
79.5831
 30
0.0
 11
78.0189
 21
92.3837
 31
0.0
  0
LINE
  8
0
 62
     0
 10
58.9689
 20
92.3837
 30
0.0
 11
74.5698
 21
92.3837
 31
0.0
  0
LINE
  8
0
 62
     0
 10
74.5698
 20
92.3837
 30
0.0
 11
74.5698
 21
79.5831
 31
0.0
  0
LINE
  8
0
 62
     0
 10
74.5698
 20
79.5831
 30
0.0
 11
58.9689
 21
79.5831
 31
0.0
  0
LINE
  8
0
 62
     0
 10
58.9689
 20
79.5831
 30
0.0
 11
58.9689
 21
92.3837
 31
0.0
  0
LINE
  8
0
 62
     0
 10
39.9189
 20
92.3837
 30
0.0
 11
55.5198
 21
92.3837
 31
0.0
  0
LINE
  8
0
 62
     0
 10
55.5198
 20
92.3837
 30
0.0
 11
55.5198
 21
79.5831
 31
0.0
  0
LINE
  8
0
 62
     0
 10
55.5198
 20
79.5831
 30
0.0
 11
39.9189
 21
79.5831
 31
0.0
  0
LINE
  8
0
 62
     0
 10
39.9189
 20
79.5831
 30
0.0
 11
39.9189
 21
92.3837
 31
0.0
  0
LINE
  8
0
 62
     0
 10
20.869
 20
92.3837
 30
0.0
 11
36.4698
 21
92.3837
 31
0.0
  0
LINE
  8
0
 62
     0
 10
36.4698
 20
92.3837
 30
0.0
 11
36.4698
 21
79.5831
 31
0.0
  0
LINE
  8
0
 62
     0
 10
36.4698
 20
79.5831
 30
0.0
 11
20.869
 21
79.5831
 31
0.0
  0
LINE
  8
0
 62
     0
 10
20.869
 20
79.5831
 30
0.0
 11
20.869
 21
92.3837
 31
0.0
  0
LINE
  8
0
 62
     0
 10
1.81901
 20
92.3837
 30
0.0
 11
17.4198
 21
92.3837
 31
0.0
  0
LINE
  8
0
 62
     0
 10
17.4198
 20
92.3837
 30
0.0
 11
17.4198
 21
79.5831
 31
0.0
  0
LINE
  8
0
 62
     0
 10
17.4198
 20
79.5831
 30
0.0
 11
1.81901
 21
79.5831
 31
0.0
  0
LINE
  8
0
 62
     0
 10
1.81901
 20
79.5831
 30
0.0
 11
1.81901
 21
92.3837
 31
0.0
  0
LINE
  8
0
 62
     0
 10
422.321
 20
131.884
 30
0.0
 11
435.12
 21
131.884
 31
0.0
  0
LINE
  8
0
 62
     0
 10
435.12
 20
131.884
 30
0.0
 11
435.12
 21
116.283
 31
0.0
  0
LINE
  8
0
 62
     0
 10
435.12
 20
116.283
 30
0.0
 11
422.321
 21
116.283
 31
0.0
  0
LINE
  8
0
 62
     0
 10
422.321
 20
116.283
 30
0.0
 11
422.321
 21
131.884
 31
0.0
  0
LINE
  8
0
 62
     0
 10
336.594
 20
131.884
 30
0.0
 11
349.395
 21
131.884
 31
0.0
  0
LINE
  8
0
 62
     0
 10
349.395
 20
131.884
 30
0.0
 11
349.395
 21
116.283
 31
0.0
  0
LINE
  8
0
 62
     0
 10
349.395
 20
116.283
 30
0.0
 11
336.594
 21
116.283
 31
0.0
  0
LINE
  8
0
 62
     0
 10
336.594
 20
116.283
 30
0.0
 11
336.594
 21
131.884
 31
0.0
  0
LINE
  8
0
 62
     0
 10
317.544
 20
131.884
 30
0.0
 11
330.345
 21
131.884
 31
0.0
  0
LINE
  8
0
 62
     0
 10
330.345
 20
131.884
 30
0.0
 11
330.345
 21
116.283
 31
0.0
  0
LINE
  8
0
 62
     0
 10
330.345
 20
116.283
 30
0.0
 11
317.544
 21
116.283
 31
0.0
  0
LINE
  8
0
 62
     0
 10
317.544
 20
116.283
 30
0.0
 11
317.544
 21
131.884
 31
0.0
  0
LINE
  8
0
 62
     0
 10
298.494
 20
131.884
 30
0.0
 11
311.295
 21
131.884
 31
0.0
  0
LINE
  8
0
 62
     0
 10
311.295
 20
131.884
 30
0.0
 11
311.295
 21
116.283
 31
0.0
  0
LINE
  8
0
 62
     0
 10
311.295
 20
116.283
 30
0.0
 11
298.494
 21
116.283
 31
0.0
  0
LINE
  8
0
 62
     0
 10
298.494
 20
116.283
 30
0.0
 11
298.494
 21
131.884
 31
0.0
  0
LINE
  8
0
 62
     0
 10
269.919
 20
131.884
 30
0.0
 11
282.72
 21
131.884
 31
0.0
  0
LINE
  8
0
 62
     0
 10
282.72
 20
131.884
 30
0.0
 11
282.72
 21
116.283
 31
0.0
  0
LINE
  8
0
 62
     0
 10
282.72
 20
116.283
 30
0.0
 11
269.919
 21
116.283
 31
0.0
  0
LINE
  8
0
 62
     0
 10
269.919
 20
116.283
 30
0.0
 11
269.919
 21
131.884
 31
0.0
  0
LINE
  8
0
 62
     0
 10
250.869
 20
131.884
 30
0.0
 11
263.67
 21
131.884
 31
0.0
  0
LINE
  8
0
 62
     0
 10
263.67
 20
131.884
 30
0.0
 11
263.67
 21
116.283
 31
0.0
  0
LINE
  8
0
 62
     0
 10
263.67
 20
116.283
 30
0.0
 11
250.869
 21
116.283
 31
0.0
  0
LINE
  8
0
 62
     0
 10
250.869
 20
116.283
 30
0.0
 11
250.869
 21
131.884
 31
0.0
  0
LINE
  8
0
 62
     0
 10
231.819
 20
131.884
 30
0.0
 11
244.62
 21
131.884
 31
0.0
  0
LINE
  8
0
 62
     0
 10
244.62
 20
131.884
 30
0.0
 11
244.62
 21
116.283
 31
0.0
  0
LINE
  8
0
 62
     0
 10
244.62
 20
116.283
 30
0.0
 11
231.819
 21
116.283
 31
0.0
  0
LINE
  8
0
 62
     0
 10
231.819
 20
116.283
 30
0.0
 11
231.819
 21
131.884
 31
0.0
  0
LINE
  8
0
 62
     0
 10
212.769
 20
131.884
 30
0.0
 11
225.57
 21
131.884
 31
0.0
  0
LINE
  8
0
 62
     0
 10
225.57
 20
131.884
 30
0.0
 11
225.57
 21
116.283
 31
0.0
  0
LINE
  8
0
 62
     0
 10
225.57
 20
116.283
 30
0.0
 11
212.769
 21
116.283
 31
0.0
  0
LINE
  8
0
 62
     0
 10
212.769
 20
116.283
 30
0.0
 11
212.769
 21
131.884
 31
0.0
  0
LINE
  8
0
 62
     0
 10
184.194
 20
131.884
 30
0.0
 11
196.995
 21
131.884
 31
0.0
  0
LINE
  8
0
 62
     0
 10
196.995
 20
131.884
 30
0.0
 11
196.995
 21
116.283
 31
0.0
  0
LINE
  8
0
 62
     0
 10
196.995
 20
116.283
 30
0.0
 11
184.194
 21
116.283
 31
0.0
  0
LINE
  8
0
 62
     0
 10
184.194
 20
116.283
 30
0.0
 11
184.194
 21
131.884
 31
0.0
  0
LINE
  8
0
 62
     0
 10
165.144
 20
131.884
 30
0.0
 11
177.945
 21
131.884
 31
0.0
  0
LINE
  8
0
 62
     0
 10
177.945
 20
131.884
 30
0.0
 11
177.945
 21
116.283
 31
0.0
  0
LINE
  8
0
 62
     0
 10
177.945
 20
116.283
 30
0.0
 11
165.144
 21
116.283
 31
0.0
  0
LINE
  8
0
 62
     0
 10
165.144
 20
116.283
 30
0.0
 11
165.144
 21
131.884
 31
0.0
  0
LINE
  8
0
 62
     0
 10
146.094
 20
131.884
 30
0.0
 11
158.895
 21
131.884
 31
0.0
  0
LINE
  8
0
 62
     0
 10
158.895
 20
131.884
 30
0.0
 11
158.895
 21
116.283
 31
0.0
  0
LINE
  8
0
 62
     0
 10
158.895
 20
116.283
 30
0.0
 11
146.094
 21
116.283
 31
0.0
  0
LINE
  8
0
 62
     0
 10
146.094
 20
116.283
 30
0.0
 11
146.094
 21
131.884
 31
0.0
  0
LINE
  8
0
 62
     0
 10
127.044
 20
131.884
 30
0.0
 11
139.845
 21
131.884
 31
0.0
  0
LINE
  8
0
 62
     0
 10
139.845
 20
131.884
 30
0.0
 11
139.845
 21
116.283
 31
0.0
  0
LINE
  8
0
 62
     0
 10
139.845
 20
116.283
 30
0.0
 11
127.044
 21
116.283
 31
0.0
  0
LINE
  8
0
 62
     0
 10
127.044
 20
116.283
 30
0.0
 11
127.044
 21
131.884
 31
0.0
  0
LINE
  8
0
 62
     0
 10
98.4691
 20
131.884
 30
0.0
 11
111.27
 21
131.884
 31
0.0
  0
LINE
  8
0
 62
     0
 10
111.27
 20
131.884
 30
0.0
 11
111.27
 21
116.283
 31
0.0
  0
LINE
  8
0
 62
     0
 10
111.27
 20
116.283
 30
0.0
 11
98.4691
 21
116.283
 31
0.0
  0
LINE
  8
0
 62
     0
 10
98.4691
 20
116.283
 30
0.0
 11
98.4691
 21
131.884
 31
0.0
  0
LINE
  8
0
 62
     0
 10
79.4191
 20
131.884
 30
0.0
 11
92.2196
 21
131.884
 31
0.0
  0
LINE
  8
0
 62
     0
 10
92.2196
 20
131.884
 30
0.0
 11
92.2196
 21
116.283
 31
0.0
  0
LINE
  8
0
 62
     0
 10
92.2196
 20
116.283
 30
0.0
 11
79.4191
 21
116.283
 31
0.0
  0
LINE
  8
0
 62
     0
 10
79.4191
 20
116.283
 30
0.0
 11
79.4191
 21
131.884
 31
0.0
  0
LINE
  8
0
 62
     0
 10
60.3691
 20
131.884
 30
0.0
 11
73.1696
 21
131.884
 31
0.0
  0
LINE
  8
0
 62
     0
 10
73.1696
 20
131.884
 30
0.0
 11
73.1696
 21
116.283
 31
0.0
  0
LINE
  8
0
 62
     0
 10
73.1696
 20
116.283
 30
0.0
 11
60.3691
 21
116.283
 31
0.0
  0
LINE
  8
0
 62
     0
 10
60.3691
 20
116.283
 30
0.0
 11
60.3691
 21
131.884
 31
0.0
  0
LINE
  8
0
 62
     0
 10
41.3191
 20
131.884
 30
0.0
 11
54.1196
 21
131.884
 31
0.0
  0
LINE
  8
0
 62
     0
 10
54.1196
 20
131.884
 30
0.0
 11
54.1196
 21
116.283
 31
0.0
  0
LINE
  8
0
 62
     0
 10
54.1196
 20
116.283
 30
0.0
 11
41.3191
 21
116.283
 31
0.0
  0
LINE
  8
0
 62
     0
 10
41.3191
 20
116.283
 30
0.0
 11
41.3191
 21
131.884
 31
0.0
  0
LINE
  8
0
 62
     0
 10
3.2191
 20
131.884
 30
0.0
 11
16.0197
 21
131.884
 31
0.0
  0
LINE
  8
0
 62
     0
 10
16.0197
 20
131.884
 30
0.0
 11
16.0197
 21
116.283
 31
0.0
  0
LINE
  8
0
 62
     0
 10
16.0197
 20
116.283
 30
0.0
 11
3.2191
 21
116.283
 31
0.0
  0
LINE
  8
0
 62
     0
 10
3.2191
 20
116.283
 30
0.0
 11
3.2191
 21
131.884
 31
0.0
  0
ENDSEC
  0
EOF
